<svg width="99" height="81" viewBox="0 0 99 81" fill="none" xmlns="http://www.w3.org/2000/svg">
<circle cx="3.65039" cy="3.65039" r="3.65039" fill="#ACFFAD"/>
<circle cx="3.65039" cy="3.65039" r="3.65039" fill="#ACFFAD"/>
<circle cx="23.7275" cy="3.65039" r="3.65039" fill="#ACFFAD"/>
<circle cx="3.65039" cy="32.8535" r="3.65039" fill="#ACFFAD"/>
<circle cx="23.7275" cy="32.8535" r="3.65039" fill="#ACFFAD"/>
<circle cx="3.65039" cy="18.252" r="3.65039" fill="#ACFFAD"/>
<circle cx="23.7275" cy="18.252" r="3.65039" fill="#ACFFAD"/>
<circle cx="43.8047" cy="3.65039" r="3.65039" fill="#ACFFAD"/>
<circle cx="63.8818" cy="3.65039" r="3.65039" fill="#ACFFAD"/>
<circle cx="43.8047" cy="32.8535" r="3.65039" fill="#ACFFAD"/>
<circle cx="63.8818" cy="32.8535" r="3.65039" fill="#ACFFAD"/>
<circle cx="43.8047" cy="18.252" r="3.65039" fill="#ACFFAD"/>
<circle cx="63.8818" cy="18.252" r="3.65039" fill="#ACFFAD"/>
<circle cx="3.65039" cy="47.4551" r="3.65039" fill="#ACFFAD"/>
<circle cx="3.65039" cy="47.4551" r="3.65039" fill="#ACFFAD"/>
<circle cx="23.7275" cy="47.4551" r="3.65039" fill="#ACFFAD"/>
<circle cx="3.65039" cy="76.6582" r="3.65039" fill="#ACFFAD"/>
<circle cx="23.7275" cy="76.6582" r="3.65039" fill="#ACFFAD"/>
<circle cx="3.65039" cy="62.0567" r="3.65039" fill="#ACFFAD"/>
<circle cx="23.7275" cy="62.0567" r="3.65039" fill="#ACFFAD"/>
<circle cx="43.8047" cy="47.4551" r="3.65039" fill="#ACFFAD"/>
<circle cx="63.8818" cy="47.4551" r="3.65039" fill="#ACFFAD"/>
<circle cx="43.8047" cy="76.6582" r="3.65039" fill="#ACFFAD"/>
<circle cx="63.8818" cy="76.6582" r="3.65039" fill="#ACFFAD"/>
<circle cx="43.8047" cy="62.0567" r="3.65039" fill="#ACFFAD"/>
<circle cx="63.8818" cy="62.0567" r="3.65039" fill="#ACFFAD"/>
<circle cx="83.959" cy="3.65039" r="3.65039" fill="#ACFFAD"/>
<circle cx="83.959" cy="3.65039" r="3.65039" fill="#ACFFAD"/>
<circle cx="83.959" cy="32.8535" r="3.65039" fill="#ACFFAD"/>
<circle cx="83.959" cy="18.252" r="3.65039" fill="#ACFFAD"/>
<circle cx="83.959" cy="47.4551" r="3.65039" fill="#ACFFAD"/>
<circle cx="83.959" cy="47.4551" r="3.65039" fill="#ACFFAD"/>
<circle cx="83.959" cy="76.6582" r="3.65039" fill="#ACFFAD"/>
<circle cx="83.959" cy="62.0567" r="3.65039" fill="#ACFFAD"/>
</svg>
