<svg width="360" height="212" viewBox="0 0 360 212" fill="none" xmlns="http://www.w3.org/2000/svg">
<rect x="-46" y="-33" width="320" height="245" rx="50" fill="#35BE80"/>
<circle cx="237.65" cy="28.6504" r="3.65039" fill="white"/>
<circle cx="237.65" cy="28.6504" r="3.65039" fill="white"/>
<circle cx="257.728" cy="28.6504" r="3.65039" fill="white"/>
<circle cx="237.65" cy="57.8535" r="3.65039" fill="white"/>
<circle cx="257.728" cy="57.8535" r="3.65039" fill="white"/>
<circle cx="237.65" cy="43.252" r="3.65039" fill="white"/>
<circle cx="257.728" cy="43.252" r="3.65039" fill="white"/>
<circle cx="277.805" cy="28.6504" r="3.65039" fill="white"/>
<circle cx="297.882" cy="28.6504" r="3.65039" fill="white"/>
<circle cx="277.805" cy="57.8535" r="3.65039" fill="white"/>
<circle cx="297.882" cy="57.8535" r="3.65039" fill="white"/>
<circle cx="277.805" cy="43.252" r="3.65039" fill="white"/>
<circle cx="297.882" cy="43.252" r="3.65039" fill="white"/>
<circle cx="237.65" cy="72.4551" r="3.65039" fill="white"/>
<circle cx="237.65" cy="72.4551" r="3.65039" fill="white"/>
<circle cx="257.728" cy="72.4551" r="3.65039" fill="white"/>
<circle cx="237.65" cy="101.658" r="3.65039" fill="white"/>
<circle cx="257.728" cy="101.658" r="3.65039" fill="white"/>
<circle cx="237.65" cy="87.0567" r="3.65039" fill="white"/>
<circle cx="257.728" cy="87.0567" r="3.65039" fill="white"/>
<circle cx="277.805" cy="72.4551" r="3.65039" fill="white"/>
<circle cx="297.882" cy="72.4551" r="3.65039" fill="white"/>
<circle cx="277.805" cy="101.658" r="3.65039" fill="white"/>
<circle cx="297.882" cy="101.658" r="3.65039" fill="white"/>
<circle cx="277.805" cy="87.0567" r="3.65039" fill="white"/>
<circle cx="297.882" cy="87.0567" r="3.65039" fill="white"/>
<circle cx="317.959" cy="28.6504" r="3.65039" fill="white"/>
<circle cx="317.959" cy="28.6504" r="3.65039" fill="white"/>
<circle cx="338.036" cy="28.6504" r="3.65039" fill="white"/>
<circle cx="317.959" cy="57.8535" r="3.65039" fill="white"/>
<circle cx="338.036" cy="57.8535" r="3.65039" fill="white"/>
<circle cx="317.959" cy="43.252" r="3.65039" fill="white"/>
<circle cx="338.036" cy="43.252" r="3.65039" fill="white"/>
<circle cx="358.113" cy="28.6504" r="3.65039" fill="white"/>
<circle cx="358.113" cy="57.8535" r="3.65039" fill="white"/>
<circle cx="358.113" cy="43.252" r="3.65039" fill="white"/>
<circle cx="317.959" cy="72.4551" r="3.65039" fill="white"/>
<circle cx="317.959" cy="72.4551" r="3.65039" fill="white"/>
<circle cx="338.036" cy="72.4551" r="3.65039" fill="white"/>
<circle cx="317.959" cy="101.658" r="3.65039" fill="white"/>
<circle cx="338.036" cy="101.658" r="3.65039" fill="white"/>
<circle cx="317.959" cy="87.0567" r="3.65039" fill="white"/>
<circle cx="338.036" cy="87.0567" r="3.65039" fill="white"/>
<circle cx="358.113" cy="72.4551" r="3.65039" fill="white"/>
<circle cx="358.113" cy="101.658" r="3.65039" fill="white"/>
<circle cx="358.113" cy="87.0567" r="3.65039" fill="white"/>
</svg>
